HIERARCHY
ROOT Hips
{
	OFFSET -21.947001 39.810204 44.525997
	CHANNELS 6 Xposition Yposition Zposition Zrotation Xrotation Yrotation
	JOINT Chest
	{
		OFFSET -0.201599 0.334099 6.453201
		CHANNELS 6 Xposition Yposition Zposition Zrotation Xrotation Yrotation
		JOINT Chest2
		{
			OFFSET 0.000000 0.000000 3.568001
			CHANNELS 6 Xposition Yposition Zposition Zrotation Xrotation Yrotation
			JOINT Neck
			{
				OFFSET 0.000000 0.000000 8.296402
				CHANNELS 6 Xposition Yposition Zposition Zrotation Xrotation Yrotation
				JOINT Head
				{
					OFFSET 0.000000 0.000000 2.173901
					CHANNELS 6 Xposition Yposition Zposition Zrotation Xrotation Yrotation
					End Site
					{
						OFFSET 0.000000 0.000000 7.891998
					}
				}
			}
			JOINT LeftCollar
			{
				OFFSET 1.927601 0.221401 6.049000
				CHANNELS 6 Xposition Yposition Zposition Zrotation Xrotation Yrotation
				JOINT LeftShoulder
				{
					OFFSET 4.959700 0.000000 0.000000
					CHANNELS 6 Xposition Yposition Zposition Zrotation Xrotation Yrotation
					JOINT LeftElbow
					{
						OFFSET 0.000000 0.000000 -8.654202
						CHANNELS 6 Xposition Yposition Zposition Zrotation Xrotation Yrotation
						JOINT LeftWrist
						{
							OFFSET 0.000000 0.000000 -13.864101
							CHANNELS 6 Xposition Yposition Zposition Zrotation Xrotation Yrotation
							End Site
							{
								OFFSET 0.000000 0.000000 -2.173901
							}
						}
					}
				}
			}
			JOINT RightCollar
			{
				OFFSET -3.155701 -0.764999 6.687801
				CHANNELS 6 Xposition Yposition Zposition Zrotation Xrotation Yrotation
				JOINT RightShoulder
				{
					OFFSET -3.592899 0.000000 0.000000
					CHANNELS 6 Xposition Yposition Zposition Zrotation Xrotation Yrotation
					JOINT RightElbow
					{
						OFFSET 0.000000 0.000000 -10.352398
						CHANNELS 6 Xposition Yposition Zposition Zrotation Xrotation Yrotation
						JOINT RightWrist
						{
							OFFSET 0.000000 0.000000 -12.750301
							CHANNELS 6 Xposition Yposition Zposition Zrotation Xrotation Yrotation
							End Site
							{
								OFFSET 0.000000 0.000000 -2.173901
							}
						}
					}
				}
			}
		}
	}
	JOINT LeftHip
	{
		OFFSET 2.460600 -0.518101 -2.735500
		CHANNELS 6 Xposition Yposition Zposition Zrotation Xrotation Yrotation
		JOINT LeftKnee
		{
			OFFSET 0.000000 -0.000004 -17.005899
			CHANNELS 6 Xposition Yposition Zposition Zrotation Xrotation Yrotation
			JOINT LeftAnkle
			{
				OFFSET 0.000000 0.000000 -19.194401
				CHANNELS 6 Xposition Yposition Zposition Zrotation Xrotation Yrotation
				End Site
				{
					OFFSET 0.000000 -8.134600 0.000000
				}
			}
		}
	}
	JOINT RightHip
	{
		OFFSET -3.115499 -0.679600 -2.320301
		CHANNELS 6 Xposition Yposition Zposition Zrotation Xrotation Yrotation
		JOINT RightKnee
		{
			OFFSET 0.000000 -0.000004 -17.680401
			CHANNELS 6 Xposition Yposition Zposition Zrotation Xrotation Yrotation
			JOINT RightAnkle
			{
				OFFSET 0.000000 0.000000 -16.993797
				CHANNELS 6 Xposition Yposition Zposition Zrotation Xrotation Yrotation
				End Site
				{
					OFFSET 0.000000 -8.842300 0.000000
				}
			}
		}
	}
}
MOTION
Frames: 6
Frame Time: 0.041667
-31.468302 37.467003 10.741993 2528.279871 3.665667 -39.125079 -0.201606 0.334095 6.453200 -16.663922 13.331461 22.528180 0.000010 0.000001 3.567997 -4.596279 -9.099747 -2.286566 0.000008 0.000000 8.296402 232.194357 -186.067139 166.367344 -0.000005 0.000005 2.173896 2.119701 5.533631 6.303287 1.927607 0.221402 6.048999 -18.652494 -1.817835 15.754012 4.959701 0.000005 0.000007 185.884554 187.692560 114.781944 -0.000005 -0.000002 -8.654200 75.058957 -11.301189 6.623941 -0.000001 -0.000001 -13.864103 4210.612510 -156.458679 190.359735 -3.155698 -0.765003 6.687805 26.603756 -0.645815 -5.136085 -3.592906 0.000002 0.000004 -157.493753 189.340138 304.088901 -0.000004 -0.000001 -10.352394 -250.403860 -57.239878 -197.981912 0.000001 -0.000005 -12.750298 -37.457372 163.734879 -119.614521 2.460598 -0.518103 -2.735503 164.011557 22.725506 77.162935 -0.000004 -0.000007 -17.005905 -418.717616 218.069389 -136.638276 -0.000003 0.000002 -19.194397 633.670418 136.107912 303.628847 -3.115502 -0.679601 -2.320303 -142.886096 -16.461876 -110.965309 -0.000004 -0.000006 -17.680395 -778.629708 178.670194 -315.075588 0.000001 -0.000001 -16.993797 973.798539 65.126093 -305.469009
-31.464300 37.470299 10.744099 2528.209056 3.605066 -39.076612 -0.201600 0.334098 6.453206 -16.677761 13.483836 22.528435 -0.000002 -0.000003 3.567996 -4.605525 -9.135436 -2.294398 0.000007 -0.000005 8.296399 232.283969 -186.000012 166.341102 0.000004 -0.000001 2.173903 2.080752 5.518466 6.330375 1.927600 0.221402 6.048996 -18.565142 -1.850162 15.737507 4.959700 0.000001 -0.000000 185.777266 187.533950 114.752929 -0.000003 0.000000 -8.654200 75.042441 -11.295615 6.601253 0.000006 -0.000002 -13.864104 4210.695565 -156.378971 190.373505 -3.155702 -0.765000 6.687802 26.705799 -0.581173 -5.336003 -3.592903 -0.000004 0.000009 -157.586261 189.276918 304.327302 -0.000004 -0.000004 -10.352388 -250.512405 -57.221771 -197.949114 0.000005 -0.000006 -12.750303 -37.511495 163.986586 -119.603948 2.460602 -0.518102 -2.735497 164.007691 22.660356 77.126544 0.000001 -0.000008 -17.005901 -418.674969 217.891736 -136.610217 -0.000007 0.000000 -19.194401 633.496548 136.060742 303.644802 -3.115500 -0.679599 -2.320299 -142.844404 -16.416729 -110.862303 -0.000004 -0.000002 -17.680393 -778.544577 178.691805 -315.095970 0.000001 -0.000000 -16.993792 973.750236 65.125936 -305.403740
-31.460001 37.473709 10.747303 2528.145672 3.541854 -39.033503 -0.201604 0.334103 6.453201 -16.692976 13.624672 22.523459 0.000006 -0.000005 3.568003 -4.608509 -9.167236 -2.300135 0.000006 0.000011 8.296401 232.353255 -185.954591 166.323234 -0.000002 0.000001 2.173896 2.059604 5.487751 6.343690 1.927600 0.221406 6.049000 -18.478798 -1.880963 15.741143 4.959700 0.000005 0.000003 185.653503 187.352731 114.713574 0.000000 -0.000006 -8.654199 75.188983 -11.300224 6.595025 0.000010 -0.000001 -13.864099 4210.817087 -156.280302 190.405853 -3.155706 -0.764992 6.687800 27.678208 -0.376129 -5.546933 -3.592899 0.000010 0.000011 -158.555725 189.389002 304.680314 -0.000002 -0.000002 -10.352395 -250.609094 -57.201096 -197.924839 0.000003 -0.000002 -12.750299 -37.535250 164.079900 -119.590096 2.460601 -0.518101 -2.735500 163.983580 22.595934 77.065776 0.000000 -0.000006 -17.005901 -418.608907 217.674891 -136.553923 -0.000005 0.000001 -19.194401 633.316231 136.039664 303.666959 -3.115500 -0.679593 -2.320303 -142.813914 -16.351999 -110.763320 0.000001 -0.000002 -17.680403 -778.446441 178.718224 -315.117580 0.000001 -0.000000 -16.993788 973.683901 65.125437 -305.316068
-31.455700 37.476902 10.750397 2528.079009 3.469444 -38.981334 -0.201599 0.334099 6.453203 -16.709211 13.776676 22.509095 0.000002 -0.000003 3.568003 -4.604003 -9.198775 -2.304143 0.000001 0.000005 8.296400 232.403962 -185.922858 166.316144 0.000001 -0.000001 2.173899 2.054342 5.447986 6.361454 1.927600 0.221402 6.049003 -18.382233 -1.917284 15.759598 4.959699 -0.000001 0.000004 185.502952 187.184654 114.670215 -0.000004 -0.000003 -8.654196 75.260195 -11.306827 6.582424 0.000010 -0.000001 -13.864100 4210.916316 -156.137318 190.451916 -3.155699 -0.764999 6.687803 27.226246 0.746211 -5.532527 -3.592897 0.000000 0.000003 -158.011509 190.306706 305.130587 -0.000008 -0.000004 -10.352400 -250.776242 -57.231695 -197.947871 -0.000001 -0.000016 -12.750299 -37.306995 164.343135 -119.687522 2.460607 -0.518104 -2.735500 163.937763 22.506826 76.997768 -0.000004 -0.000011 -17.005903 -418.474762 217.394253 -136.451156 -0.000012 0.000002 -19.194401 633.063569 136.038708 303.698679 -3.115490 -0.679599 -2.320306 -142.784271 -16.287103 -110.660860 -0.000003 -0.000002 -17.680393 -778.332732 178.723689 -315.146158 0.000004 -0.000001 -16.993788 973.618550 65.131823 -305.204653
-31.451298 37.479904 10.753300 2528.041197 3.413404 -38.939636 -0.201598 0.334098 6.453200 -16.721910 13.873717 22.487206 0.000004 0.000001 3.567996 -4.584244 -9.226463 -2.303584 -0.000005 0.000003 8.296396 232.382488 -185.966571 166.330105 0.000001 0.000001 2.173901 2.082170 5.512164 6.355564 1.927592 0.221401 6.049002 -18.345547 -1.910194 15.867822 4.959701 -0.000003 0.000004 185.352210 187.066819 114.534022 0.000003 -0.000002 -8.654196 75.347266 -11.297464 6.549559 0.000000 -0.000001 -13.864103 4211.026037 -156.048635 190.514835 -3.155709 -0.765000 6.687806 27.223797 0.800194 -5.637502 -3.592896 0.000001 0.000007 -157.991373 190.254168 305.247110 -0.000004 -0.000004 -10.352388 -251.004753 -57.236661 -198.161738 0.000006 0.000002 -12.750299 -37.320242 164.347192 -119.647702 2.460604 -0.518101 -2.735503 163.904309 22.467615 76.916509 0.000000 -0.000010 -17.005901 -418.372801 217.130839 -136.378018 -0.000005 0.000002 -19.194393 632.833583 136.046781 303.717175 -3.115499 -0.679596 -2.320299 -142.776089 -16.215602 -110.585510 -0.000002 -0.000010 -17.680393 -778.236180 178.727869 -315.172440 0.000002 -0.000001 -16.993788 973.550466 65.137704 -305.092147
-31.447098 37.482609 10.755596 2528.027646 3.376507 -38.906970 -0.201595 0.334103 6.453197 -16.725223 13.915039 22.456030 0.000003 -0.000003 3.568003 -4.553235 -9.238390 -2.297819 0.000005 -0.000001 8.296391 232.325497 -186.004069 166.346634 0.000001 -0.000009 2.173902 2.113252 5.464406 6.373042 1.927606 0.221405 6.049001 -18.365247 -1.884404 16.021684 4.959704 -0.000002 0.000004 185.244470 186.983723 114.343971 -0.000001 0.000004 -8.654198 75.546810 -11.274642 6.510235 0.000001 -0.000001 -13.864103 4211.127888 -156.030153 190.616291 -3.155699 -0.765000 6.687799 27.211977 0.850575 -5.717581 -3.592898 0.000007 0.000009 -157.959326 190.235808 305.358333 0.000000 0.000004 -10.352388 -251.079475 -57.234048 -198.284490 0.000000 -0.000004 -12.750304 -37.209187 164.457227 -119.768870 2.460610 -0.518103 -2.735501 163.896181 22.513577 76.914897 -0.000002 -0.000005 -17.005899 -418.649642 217.209551 -136.531438 -0.000001 0.000002 -19.194395 632.869810 135.976007 303.749878 -3.115490 -0.679597 -2.320305 -142.783028 -16.150442 -110.535082 -0.000003 0.000000 -17.680391 -778.166676 178.737035 -315.192548 0.000005 -0.000001 -16.993788 973.508283 65.137445 -305.023927
